<?xml version="1.0" encoding="UTF-8" standalone="no"?><!DOCTYPE svg PUBLIC "-//W3C//DTD SVG 1.1//EN" "http://www.w3.org/Graphics/SVG/1.1/DTD/svg11.dtd"><!-- Generated by graphviz version 2.40.1 (20161225.0304)
 --><!-- Title: Tree Pages: 1 --><svg xmlns="http://www.w3.org/2000/svg" xmlns:xlink="http://www.w3.org/1999/xlink" width="2122pt" height="1107pt" viewBox="0.00 0.00 2122.36 1107.20">
<g id="graph0" class="graph" transform="scale(1 1) rotate(0) translate(4 1103.2)">
<title>Tree</title>
<polygon fill="#ffffff" stroke="transparent" points="-4,4 -4,-1103.2 2118.3568,-1103.2 2118.3568,4 -4,4"/>
<!-- 0 -->
<g id="node1" class="node">
<title>0</title>
<path fill="#f0dafa" stroke="#000000" d="M1477.7308,-1099.2C1477.7308,-1099.2 1280.626,-1099.2 1280.626,-1099.2 1274.626,-1099.2 1268.626,-1093.2 1268.626,-1087.2 1268.626,-1087.2 1268.626,-1019.2 1268.626,-1019.2 1268.626,-1013.2 1274.626,-1007.2 1280.626,-1007.2 1280.626,-1007.2 1477.7308,-1007.2 1477.7308,-1007.2 1483.7308,-1007.2 1489.7308,-1013.2 1489.7308,-1019.2 1489.7308,-1019.2 1489.7308,-1087.2 1489.7308,-1087.2 1489.7308,-1093.2 1483.7308,-1099.2 1477.7308,-1099.2"/>
<text text-anchor="middle" x="1379.1784" y="-1082.6" font-family="Helvetica,sans-Serif" font-size="14.00" fill="#000000">milk &lt;= 0.5</text>
<text text-anchor="middle" x="1379.1784" y="-1065.8" font-family="Helvetica,sans-Serif" font-size="14.00" fill="#000000">gini = 0.816</text>
<text text-anchor="middle" x="1379.1784" y="-1049" font-family="Helvetica,sans-Serif" font-size="14.00" fill="#000000">samples = 110</text>
<text text-anchor="middle" x="1379.1784" y="-1032.2" font-family="Helvetica,sans-Serif" font-size="14.00" fill="#000000">value = [7, 26, 19, 25, 23, 53, 18]</text>
<text text-anchor="middle" x="1379.1784" y="-1015.4" font-family="Helvetica,sans-Serif" font-size="14.00" fill="#000000">class = Mammal</text>
</g>
<!-- 1 -->
<g id="node2" class="node">
<title>1</title>
<path fill="#fefffd" stroke="#000000" d="M1365.9484,-971.2C1365.9484,-971.2 1176.4084,-971.2 1176.4084,-971.2 1170.4084,-971.2 1164.4084,-965.2 1164.4084,-959.2 1164.4084,-959.2 1164.4084,-891.2 1164.4084,-891.2 1164.4084,-885.2 1170.4084,-879.2 1176.4084,-879.2 1176.4084,-879.2 1365.9484,-879.2 1365.9484,-879.2 1371.9484,-879.2 1377.9484,-885.2 1377.9484,-891.2 1377.9484,-891.2 1377.9484,-959.2 1377.9484,-959.2 1377.9484,-965.2 1371.9484,-971.2 1365.9484,-971.2"/>
<text text-anchor="middle" x="1271.1784" y="-954.6" font-family="Helvetica,sans-Serif" font-size="14.00" fill="#000000">tail &lt;= 0.5</text>
<text text-anchor="middle" x="1271.1784" y="-937.8" font-family="Helvetica,sans-Serif" font-size="14.00" fill="#000000">gini = 0.816</text>
<text text-anchor="middle" x="1271.1784" y="-921" font-family="Helvetica,sans-Serif" font-size="14.00" fill="#000000">samples = 76</text>
<text text-anchor="middle" x="1271.1784" y="-904.2" font-family="Helvetica,sans-Serif" font-size="14.00" fill="#000000">value = [7, 26, 19, 25, 23, 0, 18]</text>
<text text-anchor="middle" x="1271.1784" y="-887.4" font-family="Helvetica,sans-Serif" font-size="14.00" fill="#000000">class = Bird</text>
</g>
<!-- 0&#45;&gt;1 -->
<g id="edge1" class="edge">
<title>0-&gt;1</title>
<path fill="none" stroke="#000000" d="M1340.1879,-1006.9891C1332.541,-997.926 1324.4578,-988.3459 1316.6213,-979.0582"/>
<polygon fill="#000000" stroke="#000000" points="1319.2354,-976.729 1310.1116,-971.3431 1313.8854,-981.2431 1319.2354,-976.729"/>
<text text-anchor="middle" x="1308.0006" y="-992.0538" font-family="Helvetica,sans-Serif" font-size="14.00" fill="#000000">True</text>
</g>
<!-- 38 -->
<g id="node39" class="node">
<title>38</title>
<path fill="#b139e5" stroke="#000000" d="M1566.3179,-962.9003C1566.3179,-962.9003 1408.0389,-962.9003 1408.0389,-962.9003 1402.0389,-962.9003 1396.0389,-956.9003 1396.0389,-950.9003 1396.0389,-950.9003 1396.0389,-899.4997 1396.0389,-899.4997 1396.0389,-893.4997 1402.0389,-887.4997 1408.0389,-887.4997 1408.0389,-887.4997 1566.3179,-887.4997 1566.3179,-887.4997 1572.3179,-887.4997 1578.3179,-893.4997 1578.3179,-899.4997 1578.3179,-899.4997 1578.3179,-950.9003 1578.3179,-950.9003 1578.3179,-956.9003 1572.3179,-962.9003 1566.3179,-962.9003"/>
<text text-anchor="middle" x="1487.1784" y="-946.2" font-family="Helvetica,sans-Serif" font-size="14.00" fill="#000000">gini = 0.0</text>
<text text-anchor="middle" x="1487.1784" y="-929.4" font-family="Helvetica,sans-Serif" font-size="14.00" fill="#000000">samples = 34</text>
<text text-anchor="middle" x="1487.1784" y="-912.6" font-family="Helvetica,sans-Serif" font-size="14.00" fill="#000000">value = [0, 0, 0, 0, 0, 53, 0]</text>
<text text-anchor="middle" x="1487.1784" y="-895.8" font-family="Helvetica,sans-Serif" font-size="14.00" fill="#000000">class = Mammal</text>
</g>
<!-- 0&#45;&gt;38 -->
<g id="edge38" class="edge">
<title>0-&gt;38</title>
<path fill="none" stroke="#000000" d="M1418.1689,-1006.9891C1428.0854,-995.2362 1438.7355,-982.6138 1448.6299,-970.8872"/>
<polygon fill="#000000" stroke="#000000" points="1451.567,-972.8335 1455.3408,-962.9335 1446.217,-968.3194 1451.567,-972.8335"/>
<text text-anchor="middle" x="1457.4518" y="-983.6442" font-family="Helvetica,sans-Serif" font-size="14.00" fill="#000000">False</text>
</g>
<!-- 2 -->
<g id="node3" class="node">
<title>2</title>
<path fill="#e5e8fc" stroke="#000000" d="M1158.1004,-843.2C1158.1004,-843.2 992.2564,-843.2 992.2564,-843.2 986.2564,-843.2 980.2564,-837.2 980.2564,-831.2 980.2564,-831.2 980.2564,-763.2 980.2564,-763.2 980.2564,-757.2 986.2564,-751.2 992.2564,-751.2 992.2564,-751.2 1158.1004,-751.2 1158.1004,-751.2 1164.1004,-751.2 1170.1004,-757.2 1170.1004,-763.2 1170.1004,-763.2 1170.1004,-831.2 1170.1004,-831.2 1170.1004,-837.2 1164.1004,-843.2 1158.1004,-843.2"/>
<text text-anchor="middle" x="1075.1784" y="-826.6" font-family="Helvetica,sans-Serif" font-size="14.00" fill="#000000">aquatic &lt;= 0.5</text>
<text text-anchor="middle" x="1075.1784" y="-809.8" font-family="Helvetica,sans-Serif" font-size="14.00" fill="#000000">gini = 0.617</text>
<text text-anchor="middle" x="1075.1784" y="-793" font-family="Helvetica,sans-Serif" font-size="14.00" fill="#000000">samples = 33</text>
<text text-anchor="middle" x="1075.1784" y="-776.2" font-family="Helvetica,sans-Serif" font-size="14.00" fill="#000000">value = [5, 0, 19, 0, 23, 0, 2]</text>
<text text-anchor="middle" x="1075.1784" y="-759.4" font-family="Helvetica,sans-Serif" font-size="14.00" fill="#000000">class = Invertebrate</text>
</g>
<!-- 1&#45;&gt;2 -->
<g id="edge2" class="edge">
<title>1-&gt;2</title>
<path fill="none" stroke="#000000" d="M1200.6948,-879.1699C1185.601,-869.3127 1169.5594,-858.8366 1154.1684,-848.7853"/>
<polygon fill="#000000" stroke="#000000" points="1155.9815,-845.7891 1145.695,-843.2516 1152.1539,-851.65 1155.9815,-845.7891"/>
</g>
<!-- 23 -->
<g id="node24" class="node">
<title>23</title>
<path fill="#fdfefa" stroke="#000000" d="M1549.8832,-843.2C1549.8832,-843.2 1376.4736,-843.2 1376.4736,-843.2 1370.4736,-843.2 1364.4736,-837.2 1364.4736,-831.2 1364.4736,-831.2 1364.4736,-763.2 1364.4736,-763.2 1364.4736,-757.2 1370.4736,-751.2 1376.4736,-751.2 1376.4736,-751.2 1549.8832,-751.2 1549.8832,-751.2 1555.8832,-751.2 1561.8832,-757.2 1561.8832,-763.2 1561.8832,-763.2 1561.8832,-831.2 1561.8832,-831.2 1561.8832,-837.2 1555.8832,-843.2 1549.8832,-843.2"/>
<text text-anchor="middle" x="1463.1784" y="-826.6" font-family="Helvetica,sans-Serif" font-size="14.00" fill="#000000">feathers &lt;= 0.5</text>
<text text-anchor="middle" x="1463.1784" y="-809.8" font-family="Helvetica,sans-Serif" font-size="14.00" fill="#000000">gini = 0.672</text>
<text text-anchor="middle" x="1463.1784" y="-793" font-family="Helvetica,sans-Serif" font-size="14.00" fill="#000000">samples = 43</text>
<text text-anchor="middle" x="1463.1784" y="-776.2" font-family="Helvetica,sans-Serif" font-size="14.00" fill="#000000">value = [2, 26, 0, 25, 0, 0, 16]</text>
<text text-anchor="middle" x="1463.1784" y="-759.4" font-family="Helvetica,sans-Serif" font-size="14.00" fill="#000000">class = Bird</text>
</g>
<!-- 1&#45;&gt;23 -->
<g id="edge23" class="edge">
<title>1-&gt;23</title>
<path fill="none" stroke="#000000" d="M1340.2235,-879.1699C1354.8725,-869.404 1370.4326,-859.0305 1385.3814,-849.0646"/>
<polygon fill="#000000" stroke="#000000" points="1387.7219,-851.7109 1394.1009,-843.2516 1383.839,-845.8865 1387.7219,-851.7109"/>
</g>
<!-- 3 -->
<g id="node4" class="node">
<title>3</title>
<path fill="#eafcec" stroke="#000000" d="M870.1004,-715.2C870.1004,-715.2 704.2564,-715.2 704.2564,-715.2 698.2564,-715.2 692.2564,-709.2 692.2564,-703.2 692.2564,-703.2 692.2564,-635.2 692.2564,-635.2 692.2564,-629.2 698.2564,-623.2 704.2564,-623.2 704.2564,-623.2 870.1004,-623.2 870.1004,-623.2 876.1004,-623.2 882.1004,-629.2 882.1004,-635.2 882.1004,-635.2 882.1004,-703.2 882.1004,-703.2 882.1004,-709.2 876.1004,-715.2 870.1004,-715.2"/>
<text text-anchor="middle" x="787.1784" y="-698.6" font-family="Helvetica,sans-Serif" font-size="14.00" fill="#000000">venomous &lt;= 0.5</text>
<text text-anchor="middle" x="787.1784" y="-681.8" font-family="Helvetica,sans-Serif" font-size="14.00" fill="#000000">gini = 0.498</text>
<text text-anchor="middle" x="787.1784" y="-665" font-family="Helvetica,sans-Serif" font-size="14.00" fill="#000000">samples = 22</text>
<text text-anchor="middle" x="787.1784" y="-648.2" font-family="Helvetica,sans-Serif" font-size="14.00" fill="#000000">value = [0, 0, 19, 0, 17, 0, 0]</text>
<text text-anchor="middle" x="787.1784" y="-631.4" font-family="Helvetica,sans-Serif" font-size="14.00" fill="#000000">class = Bug</text>
</g>
<!-- 2&#45;&gt;3 -->
<g id="edge3" class="edge">
<title>2-&gt;3</title>
<path fill="none" stroke="#000000" d="M980.0783,-754.9333C951.6923,-742.3173 920.4297,-728.4228 891.4874,-715.5596"/>
<polygon fill="#000000" stroke="#000000" points="892.7383,-712.2854 882.1787,-711.4223 889.8953,-718.6821 892.7383,-712.2854"/>
</g>
<!-- 14 -->
<g id="node15" class="node">
<title>14</title>
<path fill="#e6eafc" stroke="#000000" d="M1150.5356,-715.2C1150.5356,-715.2 999.8212,-715.2 999.8212,-715.2 993.8212,-715.2 987.8212,-709.2 987.8212,-703.2 987.8212,-703.2 987.8212,-635.2 987.8212,-635.2 987.8212,-629.2 993.8212,-623.2 999.8212,-623.2 999.8212,-623.2 1150.5356,-623.2 1150.5356,-623.2 1156.5356,-623.2 1162.5356,-629.2 1162.5356,-635.2 1162.5356,-635.2 1162.5356,-703.2 1162.5356,-703.2 1162.5356,-709.2 1156.5356,-715.2 1150.5356,-715.2"/>
<text text-anchor="middle" x="1075.1784" y="-698.6" font-family="Helvetica,sans-Serif" font-size="14.00" fill="#000000">backbone &lt;= 0.5</text>
<text text-anchor="middle" x="1075.1784" y="-681.8" font-family="Helvetica,sans-Serif" font-size="14.00" fill="#000000">gini = 0.615</text>
<text text-anchor="middle" x="1075.1784" y="-665" font-family="Helvetica,sans-Serif" font-size="14.00" fill="#000000">samples = 11</text>
<text text-anchor="middle" x="1075.1784" y="-648.2" font-family="Helvetica,sans-Serif" font-size="14.00" fill="#000000">value = [5, 0, 0, 0, 6, 0, 2]</text>
<text text-anchor="middle" x="1075.1784" y="-631.4" font-family="Helvetica,sans-Serif" font-size="14.00" fill="#000000">class = Invertebrate</text>
</g>
<!-- 2&#45;&gt;14 -->
<g id="edge14" class="edge">
<title>2-&gt;14</title>
<path fill="none" stroke="#000000" d="M1075.1784,-750.9891C1075.1784,-742.7417 1075.1784,-734.0661 1075.1784,-725.5724"/>
<polygon fill="#000000" stroke="#000000" points="1078.6785,-725.3431 1075.1784,-715.3431 1071.6785,-725.3431 1078.6785,-725.3431"/>
</g>
<!-- 4 -->
<g id="node5" class="node">
<title>4</title>
<path fill="#b3f5bb" stroke="#000000" d="M554.3179,-587.2C554.3179,-587.2 396.0389,-587.2 396.0389,-587.2 390.0389,-587.2 384.0389,-581.2 384.0389,-575.2 384.0389,-575.2 384.0389,-507.2 384.0389,-507.2 384.0389,-501.2 390.0389,-495.2 396.0389,-495.2 396.0389,-495.2 554.3179,-495.2 554.3179,-495.2 560.3179,-495.2 566.3179,-501.2 566.3179,-507.2 566.3179,-507.2 566.3179,-575.2 566.3179,-575.2 566.3179,-581.2 560.3179,-587.2 554.3179,-587.2"/>
<text text-anchor="middle" x="475.1784" y="-570.6" font-family="Helvetica,sans-Serif" font-size="14.00" fill="#000000">predator &lt;= 0.5</text>
<text text-anchor="middle" x="475.1784" y="-553.8" font-family="Helvetica,sans-Serif" font-size="14.00" fill="#000000">gini = 0.472</text>
<text text-anchor="middle" x="475.1784" y="-537" font-family="Helvetica,sans-Serif" font-size="14.00" fill="#000000">samples = 15</text>
<text text-anchor="middle" x="475.1784" y="-520.2" font-family="Helvetica,sans-Serif" font-size="14.00" fill="#000000">value = [0, 0, 13, 0, 8, 0, 0]</text>
<text text-anchor="middle" x="475.1784" y="-503.4" font-family="Helvetica,sans-Serif" font-size="14.00" fill="#000000">class = Bug</text>
</g>
<!-- 3&#45;&gt;4 -->
<g id="edge4" class="edge">
<title>3-&gt;4</title>
<path fill="none" stroke="#000000" d="M691.8728,-630.1003C655.1146,-615.02 613.0299,-597.7545 575.7861,-582.4749"/>
<polygon fill="#000000" stroke="#000000" points="577.0079,-579.1932 566.4278,-578.6356 574.351,-585.6694 577.0079,-579.1932"/>
</g>
<!-- 11 -->
<g id="node12" class="node">
<title>11</title>
<path fill="#bdc7f6" stroke="#000000" d="M862.5356,-587.2C862.5356,-587.2 711.8212,-587.2 711.8212,-587.2 705.8212,-587.2 699.8212,-581.2 699.8212,-575.2 699.8212,-575.2 699.8212,-507.2 699.8212,-507.2 699.8212,-501.2 705.8212,-495.2 711.8212,-495.2 711.8212,-495.2 862.5356,-495.2 862.5356,-495.2 868.5356,-495.2 874.5356,-501.2 874.5356,-507.2 874.5356,-507.2 874.5356,-575.2 874.5356,-575.2 874.5356,-581.2 868.5356,-587.2 862.5356,-587.2"/>
<text text-anchor="middle" x="787.1784" y="-570.6" font-family="Helvetica,sans-Serif" font-size="14.00" fill="#000000">airborne &lt;= 0.5</text>
<text text-anchor="middle" x="787.1784" y="-553.8" font-family="Helvetica,sans-Serif" font-size="14.00" fill="#000000">gini = 0.48</text>
<text text-anchor="middle" x="787.1784" y="-537" font-family="Helvetica,sans-Serif" font-size="14.00" fill="#000000">samples = 7</text>
<text text-anchor="middle" x="787.1784" y="-520.2" font-family="Helvetica,sans-Serif" font-size="14.00" fill="#000000">value = [0, 0, 6, 0, 9, 0, 0]</text>
<text text-anchor="middle" x="787.1784" y="-503.4" font-family="Helvetica,sans-Serif" font-size="14.00" fill="#000000">class = Invertebrate</text>
</g>
<!-- 3&#45;&gt;11 -->
<g id="edge11" class="edge">
<title>3-&gt;11</title>
<path fill="none" stroke="#000000" d="M787.1784,-622.9891C787.1784,-614.7417 787.1784,-606.0661 787.1784,-597.5724"/>
<polygon fill="#000000" stroke="#000000" points="790.6785,-597.3431 787.1784,-587.3431 783.6785,-597.3431 790.6785,-597.3431"/>
</g>
<!-- 5 -->
<g id="node6" class="node">
<title>5</title>
<path fill="#c9f8ce" stroke="#000000" d="M358.3179,-459.2C358.3179,-459.2 200.0389,-459.2 200.0389,-459.2 194.0389,-459.2 188.0389,-453.2 188.0389,-447.2 188.0389,-447.2 188.0389,-379.2 188.0389,-379.2 188.0389,-373.2 194.0389,-367.2 200.0389,-367.2 200.0389,-367.2 358.3179,-367.2 358.3179,-367.2 364.3179,-367.2 370.3179,-373.2 370.3179,-379.2 370.3179,-379.2 370.3179,-447.2 370.3179,-447.2 370.3179,-453.2 364.3179,-459.2 358.3179,-459.2"/>
<text text-anchor="middle" x="279.1784" y="-442.6" font-family="Helvetica,sans-Serif" font-size="14.00" fill="#000000">airborne &lt;= 0.5</text>
<text text-anchor="middle" x="279.1784" y="-425.8" font-family="Helvetica,sans-Serif" font-size="14.00" fill="#000000">gini = 0.488</text>
<text text-anchor="middle" x="279.1784" y="-409" font-family="Helvetica,sans-Serif" font-size="14.00" fill="#000000">samples = 14</text>
<text text-anchor="middle" x="279.1784" y="-392.2" font-family="Helvetica,sans-Serif" font-size="14.00" fill="#000000">value = [0, 0, 11, 0, 8, 0, 0]</text>
<text text-anchor="middle" x="279.1784" y="-375.4" font-family="Helvetica,sans-Serif" font-size="14.00" fill="#000000">class = Bug</text>
</g>
<!-- 4&#45;&gt;5 -->
<g id="edge5" class="edge">
<title>4-&gt;5</title>
<path fill="none" stroke="#000000" d="M404.6948,-495.1699C389.601,-485.3127 373.5594,-474.8366 358.1684,-464.7853"/>
<polygon fill="#000000" stroke="#000000" points="359.9815,-461.7891 349.695,-459.2516 356.1539,-467.65 359.9815,-461.7891"/>
</g>
<!-- 10 -->
<g id="node11" class="node">
<title>10</title>
<path fill="#39e54d" stroke="#000000" d="M550.5356,-450.9003C550.5356,-450.9003 399.8212,-450.9003 399.8212,-450.9003 393.8212,-450.9003 387.8212,-444.9003 387.8212,-438.9003 387.8212,-438.9003 387.8212,-387.4997 387.8212,-387.4997 387.8212,-381.4997 393.8212,-375.4997 399.8212,-375.4997 399.8212,-375.4997 550.5356,-375.4997 550.5356,-375.4997 556.5356,-375.4997 562.5356,-381.4997 562.5356,-387.4997 562.5356,-387.4997 562.5356,-438.9003 562.5356,-438.9003 562.5356,-444.9003 556.5356,-450.9003 550.5356,-450.9003"/>
<text text-anchor="middle" x="475.1784" y="-434.2" font-family="Helvetica,sans-Serif" font-size="14.00" fill="#000000">gini = 0.0</text>
<text text-anchor="middle" x="475.1784" y="-417.4" font-family="Helvetica,sans-Serif" font-size="14.00" fill="#000000">samples = 1</text>
<text text-anchor="middle" x="475.1784" y="-400.6" font-family="Helvetica,sans-Serif" font-size="14.00" fill="#000000">value = [0, 0, 2, 0, 0, 0, 0]</text>
<text text-anchor="middle" x="475.1784" y="-383.8" font-family="Helvetica,sans-Serif" font-size="14.00" fill="#000000">class = Bug</text>
</g>
<!-- 4&#45;&gt;10 -->
<g id="edge10" class="edge">
<title>4-&gt;10</title>
<path fill="none" stroke="#000000" d="M475.1784,-494.9891C475.1784,-484.0272 475.1784,-472.309 475.1784,-461.2667"/>
<polygon fill="#000000" stroke="#000000" points="478.6785,-460.9335 475.1784,-450.9335 471.6785,-460.9335 478.6785,-460.9335"/>
</g>
<!-- 6 -->
<g id="node7" class="node">
<title>6</title>
<path fill="#9caaf2" stroke="#000000" d="M258.5356,-331.2C258.5356,-331.2 107.8212,-331.2 107.8212,-331.2 101.8212,-331.2 95.8212,-325.2 95.8212,-319.2 95.8212,-319.2 95.8212,-251.2 95.8212,-251.2 95.8212,-245.2 101.8212,-239.2 107.8212,-239.2 107.8212,-239.2 258.5356,-239.2 258.5356,-239.2 264.5356,-239.2 270.5356,-245.2 270.5356,-251.2 270.5356,-251.2 270.5356,-319.2 270.5356,-319.2 270.5356,-325.2 264.5356,-331.2 258.5356,-331.2"/>
<text text-anchor="middle" x="183.1784" y="-314.6" font-family="Helvetica,sans-Serif" font-size="14.00" fill="#000000">legs &lt;= 3.0</text>
<text text-anchor="middle" x="183.1784" y="-297.8" font-family="Helvetica,sans-Serif" font-size="14.00" fill="#000000">gini = 0.444</text>
<text text-anchor="middle" x="183.1784" y="-281" font-family="Helvetica,sans-Serif" font-size="14.00" fill="#000000">samples = 8</text>
<text text-anchor="middle" x="183.1784" y="-264.2" font-family="Helvetica,sans-Serif" font-size="14.00" fill="#000000">value = [0, 0, 4, 0, 8, 0, 0]</text>
<text text-anchor="middle" x="183.1784" y="-247.4" font-family="Helvetica,sans-Serif" font-size="14.00" fill="#000000">class = Invertebrate</text>
</g>
<!-- 5&#45;&gt;6 -->
<g id="edge6" class="edge">
<title>5-&gt;6</title>
<path fill="none" stroke="#000000" d="M244.5202,-366.9891C237.8588,-358.1072 230.8251,-348.7289 223.9903,-339.6158"/>
<polygon fill="#000000" stroke="#000000" points="226.5858,-337.2431 217.7857,-331.3431 220.9858,-341.4431 226.5858,-337.2431"/>
</g>
<!-- 9 -->
<g id="node10" class="node">
<title>9</title>
<path fill="#39e54d" stroke="#000000" d="M450.5356,-322.9003C450.5356,-322.9003 299.8212,-322.9003 299.8212,-322.9003 293.8212,-322.9003 287.8212,-316.9003 287.8212,-310.9003 287.8212,-310.9003 287.8212,-259.4997 287.8212,-259.4997 287.8212,-253.4997 293.8212,-247.4997 299.8212,-247.4997 299.8212,-247.4997 450.5356,-247.4997 450.5356,-247.4997 456.5356,-247.4997 462.5356,-253.4997 462.5356,-259.4997 462.5356,-259.4997 462.5356,-310.9003 462.5356,-310.9003 462.5356,-316.9003 456.5356,-322.9003 450.5356,-322.9003"/>
<text text-anchor="middle" x="375.1784" y="-306.2" font-family="Helvetica,sans-Serif" font-size="14.00" fill="#000000">gini = 0.0</text>
<text text-anchor="middle" x="375.1784" y="-289.4" font-family="Helvetica,sans-Serif" font-size="14.00" fill="#000000">samples = 6</text>
<text text-anchor="middle" x="375.1784" y="-272.6" font-family="Helvetica,sans-Serif" font-size="14.00" fill="#000000">value = [0, 0, 7, 0, 0, 0, 0]</text>
<text text-anchor="middle" x="375.1784" y="-255.8" font-family="Helvetica,sans-Serif" font-size="14.00" fill="#000000">class = Bug</text>
</g>
<!-- 5&#45;&gt;9 -->
<g id="edge9" class="edge">
<title>5-&gt;9</title>
<path fill="none" stroke="#000000" d="M313.8366,-366.9891C322.5665,-355.3492 331.936,-342.8565 340.6591,-331.2257"/>
<polygon fill="#000000" stroke="#000000" points="343.6782,-333.0335 346.8783,-322.9335 338.0782,-328.8335 343.6782,-333.0335"/>
</g>
<!-- 7 -->
<g id="node8" class="node">
<title>7</title>
<path fill="#3956e5" stroke="#000000" d="M162.5356,-194.9003C162.5356,-194.9003 11.8212,-194.9003 11.8212,-194.9003 5.8212,-194.9003 -.1788,-188.9003 -.1788,-182.9003 -.1788,-182.9003 -.1788,-131.4997 -.1788,-131.4997 -.1788,-125.4997 5.8212,-119.4997 11.8212,-119.4997 11.8212,-119.4997 162.5356,-119.4997 162.5356,-119.4997 168.5356,-119.4997 174.5356,-125.4997 174.5356,-131.4997 174.5356,-131.4997 174.5356,-182.9003 174.5356,-182.9003 174.5356,-188.9003 168.5356,-194.9003 162.5356,-194.9003"/>
<text text-anchor="middle" x="87.1784" y="-178.2" font-family="Helvetica,sans-Serif" font-size="14.00" fill="#000000">gini = 0.0</text>
<text text-anchor="middle" x="87.1784" y="-161.4" font-family="Helvetica,sans-Serif" font-size="14.00" fill="#000000">samples = 4</text>
<text text-anchor="middle" x="87.1784" y="-144.6" font-family="Helvetica,sans-Serif" font-size="14.00" fill="#000000">value = [0, 0, 0, 0, 7, 0, 0]</text>
<text text-anchor="middle" x="87.1784" y="-127.8" font-family="Helvetica,sans-Serif" font-size="14.00" fill="#000000">class = Invertebrate</text>
</g>
<!-- 6&#45;&gt;7 -->
<g id="edge7" class="edge">
<title>6-&gt;7</title>
<path fill="none" stroke="#000000" d="M148.5202,-238.9891C139.7903,-227.3492 130.4208,-214.8565 121.6977,-203.2257"/>
<polygon fill="#000000" stroke="#000000" points="124.2786,-200.8335 115.4785,-194.9335 118.6786,-205.0335 124.2786,-200.8335"/>
</g>
<!-- 8 -->
<g id="node9" class="node">
<title>8</title>
<path fill="#6aec79" stroke="#000000" d="M354.5356,-194.9003C354.5356,-194.9003 203.8212,-194.9003 203.8212,-194.9003 197.8212,-194.9003 191.8212,-188.9003 191.8212,-182.9003 191.8212,-182.9003 191.8212,-131.4997 191.8212,-131.4997 191.8212,-125.4997 197.8212,-119.4997 203.8212,-119.4997 203.8212,-119.4997 354.5356,-119.4997 354.5356,-119.4997 360.5356,-119.4997 366.5356,-125.4997 366.5356,-131.4997 366.5356,-131.4997 366.5356,-182.9003 366.5356,-182.9003 366.5356,-188.9003 360.5356,-194.9003 354.5356,-194.9003"/>
<text text-anchor="middle" x="279.1784" y="-178.2" font-family="Helvetica,sans-Serif" font-size="14.00" fill="#000000">gini = 0.32</text>
<text text-anchor="middle" x="279.1784" y="-161.4" font-family="Helvetica,sans-Serif" font-size="14.00" fill="#000000">samples = 4</text>
<text text-anchor="middle" x="279.1784" y="-144.6" font-family="Helvetica,sans-Serif" font-size="14.00" fill="#000000">value = [0, 0, 4, 0, 1, 0, 0]</text>
<text text-anchor="middle" x="279.1784" y="-127.8" font-family="Helvetica,sans-Serif" font-size="14.00" fill="#000000">class = Bug</text>
</g>
<!-- 6&#45;&gt;8 -->
<g id="edge8" class="edge">
<title>6-&gt;8</title>
<path fill="none" stroke="#000000" d="M217.8366,-238.9891C226.5665,-227.3492 235.936,-214.8565 244.6591,-203.2257"/>
<polygon fill="#000000" stroke="#000000" points="247.6782,-205.0335 250.8783,-194.9335 242.0782,-200.8335 247.6782,-205.0335"/>
</g>
<!-- 12 -->
<g id="node13" class="node">
<title>12</title>
<path fill="#3956e5" stroke="#000000" d="M742.5356,-450.9003C742.5356,-450.9003 591.8212,-450.9003 591.8212,-450.9003 585.8212,-450.9003 579.8212,-444.9003 579.8212,-438.9003 579.8212,-438.9003 579.8212,-387.4997 579.8212,-387.4997 579.8212,-381.4997 585.8212,-375.4997 591.8212,-375.4997 591.8212,-375.4997 742.5356,-375.4997 742.5356,-375.4997 748.5356,-375.4997 754.5356,-381.4997 754.5356,-387.4997 754.5356,-387.4997 754.5356,-438.9003 754.5356,-438.9003 754.5356,-444.9003 748.5356,-450.9003 742.5356,-450.9003"/>
<text text-anchor="middle" x="667.1784" y="-434.2" font-family="Helvetica,sans-Serif" font-size="14.00" fill="#000000">gini = 0.0</text>
<text text-anchor="middle" x="667.1784" y="-417.4" font-family="Helvetica,sans-Serif" font-size="14.00" fill="#000000">samples = 3</text>
<text text-anchor="middle" x="667.1784" y="-400.6" font-family="Helvetica,sans-Serif" font-size="14.00" fill="#000000">value = [0, 0, 0, 0, 9, 0, 0]</text>
<text text-anchor="middle" x="667.1784" y="-383.8" font-family="Helvetica,sans-Serif" font-size="14.00" fill="#000000">class = Invertebrate</text>
</g>
<!-- 11&#45;&gt;12 -->
<g id="edge12" class="edge">
<title>11-&gt;12</title>
<path fill="none" stroke="#000000" d="M743.8556,-494.9891C732.7313,-483.1231 720.7762,-470.371 709.6932,-458.5492"/>
<polygon fill="#000000" stroke="#000000" points="711.9464,-455.8351 702.5536,-450.9335 706.8396,-460.6227 711.9464,-455.8351"/>
</g>
<!-- 13 -->
<g id="node14" class="node">
<title>13</title>
<path fill="#39e54d" stroke="#000000" d="M934.5356,-450.9003C934.5356,-450.9003 783.8212,-450.9003 783.8212,-450.9003 777.8212,-450.9003 771.8212,-444.9003 771.8212,-438.9003 771.8212,-438.9003 771.8212,-387.4997 771.8212,-387.4997 771.8212,-381.4997 777.8212,-375.4997 783.8212,-375.4997 783.8212,-375.4997 934.5356,-375.4997 934.5356,-375.4997 940.5356,-375.4997 946.5356,-381.4997 946.5356,-387.4997 946.5356,-387.4997 946.5356,-438.9003 946.5356,-438.9003 946.5356,-444.9003 940.5356,-450.9003 934.5356,-450.9003"/>
<text text-anchor="middle" x="859.1784" y="-434.2" font-family="Helvetica,sans-Serif" font-size="14.00" fill="#000000">gini = 0.0</text>
<text text-anchor="middle" x="859.1784" y="-417.4" font-family="Helvetica,sans-Serif" font-size="14.00" fill="#000000">samples = 4</text>
<text text-anchor="middle" x="859.1784" y="-400.6" font-family="Helvetica,sans-Serif" font-size="14.00" fill="#000000">value = [0, 0, 6, 0, 0, 0, 0]</text>
<text text-anchor="middle" x="859.1784" y="-383.8" font-family="Helvetica,sans-Serif" font-size="14.00" fill="#000000">class = Bug</text>
</g>
<!-- 11&#45;&gt;13 -->
<g id="edge13" class="edge">
<title>11-&gt;13</title>
<path fill="none" stroke="#000000" d="M813.1721,-494.9891C819.5924,-483.5752 826.4739,-471.3413 832.9073,-459.9042"/>
<polygon fill="#000000" stroke="#000000" points="836.1012,-461.3652 837.9533,-450.9335 830.0001,-457.9333 836.1012,-461.3652"/>
</g>
<!-- 15 -->
<g id="node16" class="node">
<title>15</title>
<path fill="#3956e5" stroke="#000000" d="M1102.5356,-578.9003C1102.5356,-578.9003 951.8212,-578.9003 951.8212,-578.9003 945.8212,-578.9003 939.8212,-572.9003 939.8212,-566.9003 939.8212,-566.9003 939.8212,-515.4997 939.8212,-515.4997 939.8212,-509.4997 945.8212,-503.4997 951.8212,-503.4997 951.8212,-503.4997 1102.5356,-503.4997 1102.5356,-503.4997 1108.5356,-503.4997 1114.5356,-509.4997 1114.5356,-515.4997 1114.5356,-515.4997 1114.5356,-566.9003 1114.5356,-566.9003 1114.5356,-572.9003 1108.5356,-578.9003 1102.5356,-578.9003"/>
<text text-anchor="middle" x="1027.1784" y="-562.2" font-family="Helvetica,sans-Serif" font-size="14.00" fill="#000000">gini = 0.0</text>
<text text-anchor="middle" x="1027.1784" y="-545.4" font-family="Helvetica,sans-Serif" font-size="14.00" fill="#000000">samples = 4</text>
<text text-anchor="middle" x="1027.1784" y="-528.6" font-family="Helvetica,sans-Serif" font-size="14.00" fill="#000000">value = [0, 0, 0, 0, 6, 0, 0]</text>
<text text-anchor="middle" x="1027.1784" y="-511.8" font-family="Helvetica,sans-Serif" font-size="14.00" fill="#000000">class = Invertebrate</text>
</g>
<!-- 14&#45;&gt;15 -->
<g id="edge15" class="edge">
<title>14-&gt;15</title>
<path fill="none" stroke="#000000" d="M1057.8493,-622.9891C1053.6538,-611.8012 1049.163,-599.8255 1044.9476,-588.5845"/>
<polygon fill="#000000" stroke="#000000" points="1048.1169,-587.0678 1041.3285,-578.9335 1041.5626,-589.5258 1048.1169,-587.0678"/>
</g>
<!-- 16 -->
<g id="node17" class="node">
<title>16</title>
<path fill="#efb388" stroke="#000000" d="M1294.5356,-587.2C1294.5356,-587.2 1143.8212,-587.2 1143.8212,-587.2 1137.8212,-587.2 1131.8212,-581.2 1131.8212,-575.2 1131.8212,-575.2 1131.8212,-507.2 1131.8212,-507.2 1131.8212,-501.2 1137.8212,-495.2 1143.8212,-495.2 1143.8212,-495.2 1294.5356,-495.2 1294.5356,-495.2 1300.5356,-495.2 1306.5356,-501.2 1306.5356,-507.2 1306.5356,-507.2 1306.5356,-575.2 1306.5356,-575.2 1306.5356,-581.2 1300.5356,-587.2 1294.5356,-587.2"/>
<text text-anchor="middle" x="1219.1784" y="-570.6" font-family="Helvetica,sans-Serif" font-size="14.00" fill="#000000">toothed &lt;= 0.5</text>
<text text-anchor="middle" x="1219.1784" y="-553.8" font-family="Helvetica,sans-Serif" font-size="14.00" fill="#000000">gini = 0.408</text>
<text text-anchor="middle" x="1219.1784" y="-537" font-family="Helvetica,sans-Serif" font-size="14.00" fill="#000000">samples = 7</text>
<text text-anchor="middle" x="1219.1784" y="-520.2" font-family="Helvetica,sans-Serif" font-size="14.00" fill="#000000">value = [5, 0, 0, 0, 0, 0, 2]</text>
<text text-anchor="middle" x="1219.1784" y="-503.4" font-family="Helvetica,sans-Serif" font-size="14.00" fill="#000000">class = Amphibian</text>
</g>
<!-- 14&#45;&gt;16 -->
<g id="edge16" class="edge">
<title>14-&gt;16</title>
<path fill="none" stroke="#000000" d="M1127.1657,-622.9891C1137.6675,-613.6541 1148.7864,-603.7706 1159.5274,-594.2231"/>
<polygon fill="#000000" stroke="#000000" points="1162.1186,-596.6027 1167.2674,-587.3431 1157.468,-591.3708 1162.1186,-596.6027"/>
</g>
<!-- 17 -->
<g id="node18" class="node">
<title>17</title>
<path fill="#f29cc2" stroke="#000000" d="M1126.5356,-459.2C1126.5356,-459.2 975.8212,-459.2 975.8212,-459.2 969.8212,-459.2 963.8212,-453.2 963.8212,-447.2 963.8212,-447.2 963.8212,-379.2 963.8212,-379.2 963.8212,-373.2 969.8212,-367.2 975.8212,-367.2 975.8212,-367.2 1126.5356,-367.2 1126.5356,-367.2 1132.5356,-367.2 1138.5356,-373.2 1138.5356,-379.2 1138.5356,-379.2 1138.5356,-447.2 1138.5356,-447.2 1138.5356,-453.2 1132.5356,-459.2 1126.5356,-459.2"/>
<text text-anchor="middle" x="1051.1784" y="-442.6" font-family="Helvetica,sans-Serif" font-size="14.00" fill="#000000">catsize &lt;= 0.5</text>
<text text-anchor="middle" x="1051.1784" y="-425.8" font-family="Helvetica,sans-Serif" font-size="14.00" fill="#000000">gini = 0.444</text>
<text text-anchor="middle" x="1051.1784" y="-409" font-family="Helvetica,sans-Serif" font-size="14.00" fill="#000000">samples = 3</text>
<text text-anchor="middle" x="1051.1784" y="-392.2" font-family="Helvetica,sans-Serif" font-size="14.00" fill="#000000">value = [1, 0, 0, 0, 0, 0, 2]</text>
<text text-anchor="middle" x="1051.1784" y="-375.4" font-family="Helvetica,sans-Serif" font-size="14.00" fill="#000000">class = Reptile</text>
</g>
<!-- 16&#45;&gt;17 -->
<g id="edge17" class="edge">
<title>16-&gt;17</title>
<path fill="none" stroke="#000000" d="M1158.5265,-494.9891C1146.0365,-485.4728 1132.7983,-475.3866 1120.0418,-465.6674"/>
<polygon fill="#000000" stroke="#000000" points="1121.8167,-462.6196 1111.7412,-459.3431 1117.5744,-468.1876 1121.8167,-462.6196"/>
</g>
<!-- 22 -->
<g id="node23" class="node">
<title>22</title>
<path fill="#e58139" stroke="#000000" d="M1318.5356,-450.9003C1318.5356,-450.9003 1167.8212,-450.9003 1167.8212,-450.9003 1161.8212,-450.9003 1155.8212,-444.9003 1155.8212,-438.9003 1155.8212,-438.9003 1155.8212,-387.4997 1155.8212,-387.4997 1155.8212,-381.4997 1161.8212,-375.4997 1167.8212,-375.4997 1167.8212,-375.4997 1318.5356,-375.4997 1318.5356,-375.4997 1324.5356,-375.4997 1330.5356,-381.4997 1330.5356,-387.4997 1330.5356,-387.4997 1330.5356,-438.9003 1330.5356,-438.9003 1330.5356,-444.9003 1324.5356,-450.9003 1318.5356,-450.9003"/>
<text text-anchor="middle" x="1243.1784" y="-434.2" font-family="Helvetica,sans-Serif" font-size="14.00" fill="#000000">gini = 0.0</text>
<text text-anchor="middle" x="1243.1784" y="-417.4" font-family="Helvetica,sans-Serif" font-size="14.00" fill="#000000">samples = 4</text>
<text text-anchor="middle" x="1243.1784" y="-400.6" font-family="Helvetica,sans-Serif" font-size="14.00" fill="#000000">value = [4, 0, 0, 0, 0, 0, 0]</text>
<text text-anchor="middle" x="1243.1784" y="-383.8" font-family="Helvetica,sans-Serif" font-size="14.00" fill="#000000">class = Amphibian</text>
</g>
<!-- 16&#45;&gt;22 -->
<g id="edge22" class="edge">
<title>16-&gt;22</title>
<path fill="none" stroke="#000000" d="M1227.843,-494.9891C1229.9195,-483.9142 1232.1408,-472.0674 1234.2299,-460.9254"/>
<polygon fill="#000000" stroke="#000000" points="1237.7005,-461.4073 1236.1034,-450.9335 1230.8204,-460.1172 1237.7005,-461.4073"/>
</g>
<!-- 18 -->
<g id="node19" class="node">
<title>18</title>
<path fill="#ffffff" stroke="#000000" d="M1030.5356,-331.2C1030.5356,-331.2 879.8212,-331.2 879.8212,-331.2 873.8212,-331.2 867.8212,-325.2 867.8212,-319.2 867.8212,-319.2 867.8212,-251.2 867.8212,-251.2 867.8212,-245.2 873.8212,-239.2 879.8212,-239.2 879.8212,-239.2 1030.5356,-239.2 1030.5356,-239.2 1036.5356,-239.2 1042.5356,-245.2 1042.5356,-251.2 1042.5356,-251.2 1042.5356,-319.2 1042.5356,-319.2 1042.5356,-325.2 1036.5356,-331.2 1030.5356,-331.2"/>
<text text-anchor="middle" x="955.1784" y="-314.6" font-family="Helvetica,sans-Serif" font-size="14.00" fill="#000000">domestic &lt;= 0.5</text>
<text text-anchor="middle" x="955.1784" y="-297.8" font-family="Helvetica,sans-Serif" font-size="14.00" fill="#000000">gini = 0.5</text>
<text text-anchor="middle" x="955.1784" y="-281" font-family="Helvetica,sans-Serif" font-size="14.00" fill="#000000">samples = 2</text>
<text text-anchor="middle" x="955.1784" y="-264.2" font-family="Helvetica,sans-Serif" font-size="14.00" fill="#000000">value = [1, 0, 0, 0, 0, 0, 1]</text>
<text text-anchor="middle" x="955.1784" y="-247.4" font-family="Helvetica,sans-Serif" font-size="14.00" fill="#000000">class = Amphibian</text>
</g>
<!-- 17&#45;&gt;18 -->
<g id="edge18" class="edge">
<title>17-&gt;18</title>
<path fill="none" stroke="#000000" d="M1016.5202,-366.9891C1009.8588,-358.1072 1002.8251,-348.7289 995.9903,-339.6158"/>
<polygon fill="#000000" stroke="#000000" points="998.5858,-337.2431 989.7857,-331.3431 992.9858,-341.4431 998.5858,-337.2431"/>
</g>
<!-- 21 -->
<g id="node22" class="node">
<title>21</title>
<path fill="#e53986" stroke="#000000" d="M1222.5356,-322.9003C1222.5356,-322.9003 1071.8212,-322.9003 1071.8212,-322.9003 1065.8212,-322.9003 1059.8212,-316.9003 1059.8212,-310.9003 1059.8212,-310.9003 1059.8212,-259.4997 1059.8212,-259.4997 1059.8212,-253.4997 1065.8212,-247.4997 1071.8212,-247.4997 1071.8212,-247.4997 1222.5356,-247.4997 1222.5356,-247.4997 1228.5356,-247.4997 1234.5356,-253.4997 1234.5356,-259.4997 1234.5356,-259.4997 1234.5356,-310.9003 1234.5356,-310.9003 1234.5356,-316.9003 1228.5356,-322.9003 1222.5356,-322.9003"/>
<text text-anchor="middle" x="1147.1784" y="-306.2" font-family="Helvetica,sans-Serif" font-size="14.00" fill="#000000">gini = 0.0</text>
<text text-anchor="middle" x="1147.1784" y="-289.4" font-family="Helvetica,sans-Serif" font-size="14.00" fill="#000000">samples = 1</text>
<text text-anchor="middle" x="1147.1784" y="-272.6" font-family="Helvetica,sans-Serif" font-size="14.00" fill="#000000">value = [0, 0, 0, 0, 0, 0, 1]</text>
<text text-anchor="middle" x="1147.1784" y="-255.8" font-family="Helvetica,sans-Serif" font-size="14.00" fill="#000000">class = Reptile</text>
</g>
<!-- 17&#45;&gt;21 -->
<g id="edge21" class="edge">
<title>17-&gt;21</title>
<path fill="none" stroke="#000000" d="M1085.8366,-366.9891C1094.5665,-355.3492 1103.936,-342.8565 1112.6591,-331.2257"/>
<polygon fill="#000000" stroke="#000000" points="1115.6782,-333.0335 1118.8783,-322.9335 1110.0782,-328.8335 1115.6782,-333.0335"/>
</g>
<!-- 19 -->
<g id="node20" class="node">
<title>19</title>
<path fill="#e58139" stroke="#000000" d="M934.5356,-194.9003C934.5356,-194.9003 783.8212,-194.9003 783.8212,-194.9003 777.8212,-194.9003 771.8212,-188.9003 771.8212,-182.9003 771.8212,-182.9003 771.8212,-131.4997 771.8212,-131.4997 771.8212,-125.4997 777.8212,-119.4997 783.8212,-119.4997 783.8212,-119.4997 934.5356,-119.4997 934.5356,-119.4997 940.5356,-119.4997 946.5356,-125.4997 946.5356,-131.4997 946.5356,-131.4997 946.5356,-182.9003 946.5356,-182.9003 946.5356,-188.9003 940.5356,-194.9003 934.5356,-194.9003"/>
<text text-anchor="middle" x="859.1784" y="-178.2" font-family="Helvetica,sans-Serif" font-size="14.00" fill="#000000">gini = 0.0</text>
<text text-anchor="middle" x="859.1784" y="-161.4" font-family="Helvetica,sans-Serif" font-size="14.00" fill="#000000">samples = 1</text>
<text text-anchor="middle" x="859.1784" y="-144.6" font-family="Helvetica,sans-Serif" font-size="14.00" fill="#000000">value = [1, 0, 0, 0, 0, 0, 0]</text>
<text text-anchor="middle" x="859.1784" y="-127.8" font-family="Helvetica,sans-Serif" font-size="14.00" fill="#000000">class = Amphibian</text>
</g>
<!-- 18&#45;&gt;19 -->
<g id="edge19" class="edge">
<title>18-&gt;19</title>
<path fill="none" stroke="#000000" d="M920.5202,-238.9891C911.7903,-227.3492 902.4208,-214.8565 893.6977,-203.2257"/>
<polygon fill="#000000" stroke="#000000" points="896.2786,-200.8335 887.4785,-194.9335 890.6786,-205.0335 896.2786,-200.8335"/>
</g>
<!-- 20 -->
<g id="node21" class="node">
<title>20</title>
<path fill="#e53986" stroke="#000000" d="M1126.5356,-194.9003C1126.5356,-194.9003 975.8212,-194.9003 975.8212,-194.9003 969.8212,-194.9003 963.8212,-188.9003 963.8212,-182.9003 963.8212,-182.9003 963.8212,-131.4997 963.8212,-131.4997 963.8212,-125.4997 969.8212,-119.4997 975.8212,-119.4997 975.8212,-119.4997 1126.5356,-119.4997 1126.5356,-119.4997 1132.5356,-119.4997 1138.5356,-125.4997 1138.5356,-131.4997 1138.5356,-131.4997 1138.5356,-182.9003 1138.5356,-182.9003 1138.5356,-188.9003 1132.5356,-194.9003 1126.5356,-194.9003"/>
<text text-anchor="middle" x="1051.1784" y="-178.2" font-family="Helvetica,sans-Serif" font-size="14.00" fill="#000000">gini = 0.0</text>
<text text-anchor="middle" x="1051.1784" y="-161.4" font-family="Helvetica,sans-Serif" font-size="14.00" fill="#000000">samples = 1</text>
<text text-anchor="middle" x="1051.1784" y="-144.6" font-family="Helvetica,sans-Serif" font-size="14.00" fill="#000000">value = [0, 0, 0, 0, 0, 0, 1]</text>
<text text-anchor="middle" x="1051.1784" y="-127.8" font-family="Helvetica,sans-Serif" font-size="14.00" fill="#000000">class = Reptile</text>
</g>
<!-- 18&#45;&gt;20 -->
<g id="edge20" class="edge">
<title>18-&gt;20</title>
<path fill="none" stroke="#000000" d="M989.8366,-238.9891C998.5665,-227.3492 1007.936,-214.8565 1016.6591,-203.2257"/>
<polygon fill="#000000" stroke="#000000" points="1019.6782,-205.0335 1022.8783,-194.9335 1014.0782,-200.8335 1019.6782,-205.0335"/>
</g>
<!-- 24 -->
<g id="node25" class="node">
<title>24</title>
<path fill="#bdf6f5" stroke="#000000" d="M1546.1004,-715.2C1546.1004,-715.2 1380.2564,-715.2 1380.2564,-715.2 1374.2564,-715.2 1368.2564,-709.2 1368.2564,-703.2 1368.2564,-703.2 1368.2564,-635.2 1368.2564,-635.2 1368.2564,-629.2 1374.2564,-623.2 1380.2564,-623.2 1380.2564,-623.2 1546.1004,-623.2 1546.1004,-623.2 1552.1004,-623.2 1558.1004,-629.2 1558.1004,-635.2 1558.1004,-635.2 1558.1004,-703.2 1558.1004,-703.2 1558.1004,-709.2 1552.1004,-715.2 1546.1004,-715.2"/>
<text text-anchor="middle" x="1463.1784" y="-698.6" font-family="Helvetica,sans-Serif" font-size="14.00" fill="#000000">venomous &lt;= 0.5</text>
<text text-anchor="middle" x="1463.1784" y="-681.8" font-family="Helvetica,sans-Serif" font-size="14.00" fill="#000000">gini = 0.521</text>
<text text-anchor="middle" x="1463.1784" y="-665" font-family="Helvetica,sans-Serif" font-size="14.00" fill="#000000">samples = 24</text>
<text text-anchor="middle" x="1463.1784" y="-648.2" font-family="Helvetica,sans-Serif" font-size="14.00" fill="#000000">value = [2, 0, 0, 25, 0, 0, 16]</text>
<text text-anchor="middle" x="1463.1784" y="-631.4" font-family="Helvetica,sans-Serif" font-size="14.00" fill="#000000">class = Fish</text>
</g>
<!-- 23&#45;&gt;24 -->
<g id="edge24" class="edge">
<title>23-&gt;24</title>
<path fill="none" stroke="#000000" d="M1463.1784,-750.9891C1463.1784,-742.7417 1463.1784,-734.0661 1463.1784,-725.5724"/>
<polygon fill="#000000" stroke="#000000" points="1466.6785,-725.3431 1463.1784,-715.3431 1459.6785,-725.3431 1466.6785,-725.3431"/>
</g>
<!-- 37 -->
<g id="node38" class="node">
<title>37</title>
<path fill="#b7e539" stroke="#000000" d="M1746.3179,-706.9003C1746.3179,-706.9003 1588.0389,-706.9003 1588.0389,-706.9003 1582.0389,-706.9003 1576.0389,-700.9003 1576.0389,-694.9003 1576.0389,-694.9003 1576.0389,-643.4997 1576.0389,-643.4997 1576.0389,-637.4997 1582.0389,-631.4997 1588.0389,-631.4997 1588.0389,-631.4997 1746.3179,-631.4997 1746.3179,-631.4997 1752.3179,-631.4997 1758.3179,-637.4997 1758.3179,-643.4997 1758.3179,-643.4997 1758.3179,-694.9003 1758.3179,-694.9003 1758.3179,-700.9003 1752.3179,-706.9003 1746.3179,-706.9003"/>
<text text-anchor="middle" x="1667.1784" y="-690.2" font-family="Helvetica,sans-Serif" font-size="14.00" fill="#000000">gini = 0.0</text>
<text text-anchor="middle" x="1667.1784" y="-673.4" font-family="Helvetica,sans-Serif" font-size="14.00" fill="#000000">samples = 19</text>
<text text-anchor="middle" x="1667.1784" y="-656.6" font-family="Helvetica,sans-Serif" font-size="14.00" fill="#000000">value = [0, 26, 0, 0, 0, 0, 0]</text>
<text text-anchor="middle" x="1667.1784" y="-639.8" font-family="Helvetica,sans-Serif" font-size="14.00" fill="#000000">class = Bird</text>
</g>
<!-- 23&#45;&gt;37 -->
<g id="edge37" class="edge">
<title>23-&gt;37</title>
<path fill="none" stroke="#000000" d="M1536.5389,-751.1699C1556.7381,-738.4959 1578.5679,-724.7988 1598.4925,-712.2971"/>
<polygon fill="#000000" stroke="#000000" points="1600.5909,-715.1124 1607.2013,-706.8327 1596.8704,-709.1829 1600.5909,-715.1124"/>
</g>
<!-- 25 -->
<g id="node26" class="node">
<title>25</title>
<path fill="#98f1f0" stroke="#000000" d="M1546.1004,-587.2C1546.1004,-587.2 1380.2564,-587.2 1380.2564,-587.2 1374.2564,-587.2 1368.2564,-581.2 1368.2564,-575.2 1368.2564,-575.2 1368.2564,-507.2 1368.2564,-507.2 1368.2564,-501.2 1374.2564,-495.2 1380.2564,-495.2 1380.2564,-495.2 1546.1004,-495.2 1546.1004,-495.2 1552.1004,-495.2 1558.1004,-501.2 1558.1004,-507.2 1558.1004,-507.2 1558.1004,-575.2 1558.1004,-575.2 1558.1004,-581.2 1552.1004,-587.2 1546.1004,-587.2"/>
<text text-anchor="middle" x="1463.1784" y="-570.6" font-family="Helvetica,sans-Serif" font-size="14.00" fill="#000000">breathes &lt;= 0.5</text>
<text text-anchor="middle" x="1463.1784" y="-553.8" font-family="Helvetica,sans-Serif" font-size="14.00" fill="#000000">gini = 0.483</text>
<text text-anchor="middle" x="1463.1784" y="-537" font-family="Helvetica,sans-Serif" font-size="14.00" fill="#000000">samples = 19</text>
<text text-anchor="middle" x="1463.1784" y="-520.2" font-family="Helvetica,sans-Serif" font-size="14.00" fill="#000000">value = [2, 0, 0, 23, 0, 0, 10]</text>
<text text-anchor="middle" x="1463.1784" y="-503.4" font-family="Helvetica,sans-Serif" font-size="14.00" fill="#000000">class = Fish</text>
</g>
<!-- 24&#45;&gt;25 -->
<g id="edge25" class="edge">
<title>24-&gt;25</title>
<path fill="none" stroke="#000000" d="M1463.1784,-622.9891C1463.1784,-614.7417 1463.1784,-606.0661 1463.1784,-597.5724"/>
<polygon fill="#000000" stroke="#000000" points="1466.6785,-597.3431 1463.1784,-587.3431 1459.6785,-597.3431 1466.6785,-597.3431"/>
</g>
<!-- 34 -->
<g id="node35" class="node">
<title>34</title>
<path fill="#ee7bae" stroke="#000000" d="M1910.5356,-587.2C1910.5356,-587.2 1759.8212,-587.2 1759.8212,-587.2 1753.8212,-587.2 1747.8212,-581.2 1747.8212,-575.2 1747.8212,-575.2 1747.8212,-507.2 1747.8212,-507.2 1747.8212,-501.2 1753.8212,-495.2 1759.8212,-495.2 1759.8212,-495.2 1910.5356,-495.2 1910.5356,-495.2 1916.5356,-495.2 1922.5356,-501.2 1922.5356,-507.2 1922.5356,-507.2 1922.5356,-575.2 1922.5356,-575.2 1922.5356,-581.2 1916.5356,-587.2 1910.5356,-587.2"/>
<text text-anchor="middle" x="1835.1784" y="-570.6" font-family="Helvetica,sans-Serif" font-size="14.00" fill="#000000">fins &lt;= 0.5</text>
<text text-anchor="middle" x="1835.1784" y="-553.8" font-family="Helvetica,sans-Serif" font-size="14.00" fill="#000000">gini = 0.375</text>
<text text-anchor="middle" x="1835.1784" y="-537" font-family="Helvetica,sans-Serif" font-size="14.00" fill="#000000">samples = 5</text>
<text text-anchor="middle" x="1835.1784" y="-520.2" font-family="Helvetica,sans-Serif" font-size="14.00" fill="#000000">value = [0, 0, 0, 2, 0, 0, 6]</text>
<text text-anchor="middle" x="1835.1784" y="-503.4" font-family="Helvetica,sans-Serif" font-size="14.00" fill="#000000">class = Reptile</text>
</g>
<!-- 24&#45;&gt;34 -->
<g id="edge34" class="edge">
<title>24-&gt;34</title>
<path fill="none" stroke="#000000" d="M1558.2056,-626.6248C1561.2221,-625.4478 1564.2184,-624.303 1567.1784,-623.2 1622.9696,-602.4111 1686.6557,-582.7613 1737.943,-567.9113"/>
<polygon fill="#000000" stroke="#000000" points="1739.0589,-571.2323 1747.6993,-565.1009 1737.1212,-564.5058 1739.0589,-571.2323"/>
</g>
<!-- 26 -->
<g id="node27" class="node">
<title>26</title>
<path fill="#39e5e2" stroke="#000000" d="M1518.3179,-450.9003C1518.3179,-450.9003 1360.0389,-450.9003 1360.0389,-450.9003 1354.0389,-450.9003 1348.0389,-444.9003 1348.0389,-438.9003 1348.0389,-438.9003 1348.0389,-387.4997 1348.0389,-387.4997 1348.0389,-381.4997 1354.0389,-375.4997 1360.0389,-375.4997 1360.0389,-375.4997 1518.3179,-375.4997 1518.3179,-375.4997 1524.3179,-375.4997 1530.3179,-381.4997 1530.3179,-387.4997 1530.3179,-387.4997 1530.3179,-438.9003 1530.3179,-438.9003 1530.3179,-444.9003 1524.3179,-450.9003 1518.3179,-450.9003"/>
<text text-anchor="middle" x="1439.1784" y="-434.2" font-family="Helvetica,sans-Serif" font-size="14.00" fill="#000000">gini = 0.0</text>
<text text-anchor="middle" x="1439.1784" y="-417.4" font-family="Helvetica,sans-Serif" font-size="14.00" fill="#000000">samples = 11</text>
<text text-anchor="middle" x="1439.1784" y="-400.6" font-family="Helvetica,sans-Serif" font-size="14.00" fill="#000000">value = [0, 0, 0, 23, 0, 0, 0]</text>
<text text-anchor="middle" x="1439.1784" y="-383.8" font-family="Helvetica,sans-Serif" font-size="14.00" fill="#000000">class = Fish</text>
</g>
<!-- 25&#45;&gt;26 -->
<g id="edge26" class="edge">
<title>25-&gt;26</title>
<path fill="none" stroke="#000000" d="M1454.5138,-494.9891C1452.4373,-483.9142 1450.216,-472.0674 1448.1269,-460.9254"/>
<polygon fill="#000000" stroke="#000000" points="1451.5364,-460.1172 1446.2534,-450.9335 1444.6563,-461.4073 1451.5364,-460.1172"/>
</g>
<!-- 27 -->
<g id="node28" class="node">
<title>27</title>
<path fill="#ea619e" stroke="#000000" d="M1718.3179,-459.2C1718.3179,-459.2 1560.0389,-459.2 1560.0389,-459.2 1554.0389,-459.2 1548.0389,-453.2 1548.0389,-447.2 1548.0389,-447.2 1548.0389,-379.2 1548.0389,-379.2 1548.0389,-373.2 1554.0389,-367.2 1560.0389,-367.2 1560.0389,-367.2 1718.3179,-367.2 1718.3179,-367.2 1724.3179,-367.2 1730.3179,-373.2 1730.3179,-379.2 1730.3179,-379.2 1730.3179,-447.2 1730.3179,-447.2 1730.3179,-453.2 1724.3179,-459.2 1718.3179,-459.2"/>
<text text-anchor="middle" x="1639.1784" y="-442.6" font-family="Helvetica,sans-Serif" font-size="14.00" fill="#000000">toothed &lt;= 0.5</text>
<text text-anchor="middle" x="1639.1784" y="-425.8" font-family="Helvetica,sans-Serif" font-size="14.00" fill="#000000">gini = 0.278</text>
<text text-anchor="middle" x="1639.1784" y="-409" font-family="Helvetica,sans-Serif" font-size="14.00" fill="#000000">samples = 8</text>
<text text-anchor="middle" x="1639.1784" y="-392.2" font-family="Helvetica,sans-Serif" font-size="14.00" fill="#000000">value = [2, 0, 0, 0, 0, 0, 10]</text>
<text text-anchor="middle" x="1639.1784" y="-375.4" font-family="Helvetica,sans-Serif" font-size="14.00" fill="#000000">class = Reptile</text>
</g>
<!-- 25&#45;&gt;27 -->
<g id="edge27" class="edge">
<title>25-&gt;27</title>
<path fill="none" stroke="#000000" d="M1526.7184,-494.9891C1539.9279,-485.3822 1553.936,-475.1944 1567.4175,-465.3898"/>
<polygon fill="#000000" stroke="#000000" points="1569.7029,-468.0554 1575.7316,-459.3431 1565.5856,-462.3943 1569.7029,-468.0554"/>
</g>
<!-- 28 -->
<g id="node29" class="node">
<title>28</title>
<path fill="#e53986" stroke="#000000" d="M1618.5356,-322.9003C1618.5356,-322.9003 1467.8212,-322.9003 1467.8212,-322.9003 1461.8212,-322.9003 1455.8212,-316.9003 1455.8212,-310.9003 1455.8212,-310.9003 1455.8212,-259.4997 1455.8212,-259.4997 1455.8212,-253.4997 1461.8212,-247.4997 1467.8212,-247.4997 1467.8212,-247.4997 1618.5356,-247.4997 1618.5356,-247.4997 1624.5356,-247.4997 1630.5356,-253.4997 1630.5356,-259.4997 1630.5356,-259.4997 1630.5356,-310.9003 1630.5356,-310.9003 1630.5356,-316.9003 1624.5356,-322.9003 1618.5356,-322.9003"/>
<text text-anchor="middle" x="1543.1784" y="-306.2" font-family="Helvetica,sans-Serif" font-size="14.00" fill="#000000">gini = 0.0</text>
<text text-anchor="middle" x="1543.1784" y="-289.4" font-family="Helvetica,sans-Serif" font-size="14.00" fill="#000000">samples = 2</text>
<text text-anchor="middle" x="1543.1784" y="-272.6" font-family="Helvetica,sans-Serif" font-size="14.00" fill="#000000">value = [0, 0, 0, 0, 0, 0, 3]</text>
<text text-anchor="middle" x="1543.1784" y="-255.8" font-family="Helvetica,sans-Serif" font-size="14.00" fill="#000000">class = Reptile</text>
</g>
<!-- 27&#45;&gt;28 -->
<g id="edge28" class="edge">
<title>27-&gt;28</title>
<path fill="none" stroke="#000000" d="M1604.5202,-366.9891C1595.7903,-355.3492 1586.4208,-342.8565 1577.6977,-331.2257"/>
<polygon fill="#000000" stroke="#000000" points="1580.2786,-328.8335 1571.4785,-322.9335 1574.6786,-333.0335 1580.2786,-328.8335"/>
</g>
<!-- 29 -->
<g id="node30" class="node">
<title>29</title>
<path fill="#ec72a9" stroke="#000000" d="M1810.5356,-331.2C1810.5356,-331.2 1659.8212,-331.2 1659.8212,-331.2 1653.8212,-331.2 1647.8212,-325.2 1647.8212,-319.2 1647.8212,-319.2 1647.8212,-251.2 1647.8212,-251.2 1647.8212,-245.2 1653.8212,-239.2 1659.8212,-239.2 1659.8212,-239.2 1810.5356,-239.2 1810.5356,-239.2 1816.5356,-239.2 1822.5356,-245.2 1822.5356,-251.2 1822.5356,-251.2 1822.5356,-319.2 1822.5356,-319.2 1822.5356,-325.2 1816.5356,-331.2 1810.5356,-331.2"/>
<text text-anchor="middle" x="1735.1784" y="-314.6" font-family="Helvetica,sans-Serif" font-size="14.00" fill="#000000">catsize &lt;= 0.5</text>
<text text-anchor="middle" x="1735.1784" y="-297.8" font-family="Helvetica,sans-Serif" font-size="14.00" fill="#000000">gini = 0.346</text>
<text text-anchor="middle" x="1735.1784" y="-281" font-family="Helvetica,sans-Serif" font-size="14.00" fill="#000000">samples = 6</text>
<text text-anchor="middle" x="1735.1784" y="-264.2" font-family="Helvetica,sans-Serif" font-size="14.00" fill="#000000">value = [2, 0, 0, 0, 0, 0, 7]</text>
<text text-anchor="middle" x="1735.1784" y="-247.4" font-family="Helvetica,sans-Serif" font-size="14.00" fill="#000000">class = Reptile</text>
</g>
<!-- 27&#45;&gt;29 -->
<g id="edge29" class="edge">
<title>27-&gt;29</title>
<path fill="none" stroke="#000000" d="M1673.8366,-366.9891C1680.498,-358.1072 1687.5317,-348.7289 1694.3665,-339.6158"/>
<polygon fill="#000000" stroke="#000000" points="1697.371,-341.4431 1700.5711,-331.3431 1691.771,-337.2431 1697.371,-341.4431"/>
</g>
<!-- 30 -->
<g id="node31" class="node">
<title>30</title>
<path fill="#f6bdd7" stroke="#000000" d="M1714.5356,-203.2C1714.5356,-203.2 1563.8212,-203.2 1563.8212,-203.2 1557.8212,-203.2 1551.8212,-197.2 1551.8212,-191.2 1551.8212,-191.2 1551.8212,-123.2 1551.8212,-123.2 1551.8212,-117.2 1557.8212,-111.2 1563.8212,-111.2 1563.8212,-111.2 1714.5356,-111.2 1714.5356,-111.2 1720.5356,-111.2 1726.5356,-117.2 1726.5356,-123.2 1726.5356,-123.2 1726.5356,-191.2 1726.5356,-191.2 1726.5356,-197.2 1720.5356,-203.2 1714.5356,-203.2"/>
<text text-anchor="middle" x="1639.1784" y="-186.6" font-family="Helvetica,sans-Serif" font-size="14.00" fill="#000000">predator &lt;= 0.5</text>
<text text-anchor="middle" x="1639.1784" y="-169.8" font-family="Helvetica,sans-Serif" font-size="14.00" fill="#000000">gini = 0.48</text>
<text text-anchor="middle" x="1639.1784" y="-153" font-family="Helvetica,sans-Serif" font-size="14.00" fill="#000000">samples = 4</text>
<text text-anchor="middle" x="1639.1784" y="-136.2" font-family="Helvetica,sans-Serif" font-size="14.00" fill="#000000">value = [2, 0, 0, 0, 0, 0, 3]</text>
<text text-anchor="middle" x="1639.1784" y="-119.4" font-family="Helvetica,sans-Serif" font-size="14.00" fill="#000000">class = Reptile</text>
</g>
<!-- 29&#45;&gt;30 -->
<g id="edge30" class="edge">
<title>29-&gt;30</title>
<path fill="none" stroke="#000000" d="M1700.5202,-238.9891C1693.8588,-230.1072 1686.8251,-220.7289 1679.9903,-211.6158"/>
<polygon fill="#000000" stroke="#000000" points="1682.5858,-209.2431 1673.7857,-203.3431 1676.9858,-213.4431 1682.5858,-209.2431"/>
</g>
<!-- 33 -->
<g id="node34" class="node">
<title>33</title>
<path fill="#e53986" stroke="#000000" d="M1906.5356,-194.9003C1906.5356,-194.9003 1755.8212,-194.9003 1755.8212,-194.9003 1749.8212,-194.9003 1743.8212,-188.9003 1743.8212,-182.9003 1743.8212,-182.9003 1743.8212,-131.4997 1743.8212,-131.4997 1743.8212,-125.4997 1749.8212,-119.4997 1755.8212,-119.4997 1755.8212,-119.4997 1906.5356,-119.4997 1906.5356,-119.4997 1912.5356,-119.4997 1918.5356,-125.4997 1918.5356,-131.4997 1918.5356,-131.4997 1918.5356,-182.9003 1918.5356,-182.9003 1918.5356,-188.9003 1912.5356,-194.9003 1906.5356,-194.9003"/>
<text text-anchor="middle" x="1831.1784" y="-178.2" font-family="Helvetica,sans-Serif" font-size="14.00" fill="#000000">gini = 0.0</text>
<text text-anchor="middle" x="1831.1784" y="-161.4" font-family="Helvetica,sans-Serif" font-size="14.00" fill="#000000">samples = 2</text>
<text text-anchor="middle" x="1831.1784" y="-144.6" font-family="Helvetica,sans-Serif" font-size="14.00" fill="#000000">value = [0, 0, 0, 0, 0, 0, 4]</text>
<text text-anchor="middle" x="1831.1784" y="-127.8" font-family="Helvetica,sans-Serif" font-size="14.00" fill="#000000">class = Reptile</text>
</g>
<!-- 29&#45;&gt;33 -->
<g id="edge33" class="edge">
<title>29-&gt;33</title>
<path fill="none" stroke="#000000" d="M1769.8366,-238.9891C1778.5665,-227.3492 1787.936,-214.8565 1796.6591,-203.2257"/>
<polygon fill="#000000" stroke="#000000" points="1799.6782,-205.0335 1802.8783,-194.9335 1794.0782,-200.8335 1799.6782,-205.0335"/>
</g>
<!-- 31 -->
<g id="node32" class="node">
<title>31</title>
<path fill="#e53986" stroke="#000000" d="M1618.5356,-75.3003C1618.5356,-75.3003 1467.8212,-75.3003 1467.8212,-75.3003 1461.8212,-75.3003 1455.8212,-69.3003 1455.8212,-63.3003 1455.8212,-63.3003 1455.8212,-11.8997 1455.8212,-11.8997 1455.8212,-5.8997 1461.8212,.1003 1467.8212,.1003 1467.8212,.1003 1618.5356,.1003 1618.5356,.1003 1624.5356,.1003 1630.5356,-5.8997 1630.5356,-11.8997 1630.5356,-11.8997 1630.5356,-63.3003 1630.5356,-63.3003 1630.5356,-69.3003 1624.5356,-75.3003 1618.5356,-75.3003"/>
<text text-anchor="middle" x="1543.1784" y="-58.6" font-family="Helvetica,sans-Serif" font-size="14.00" fill="#000000">gini = 0.0</text>
<text text-anchor="middle" x="1543.1784" y="-41.8" font-family="Helvetica,sans-Serif" font-size="14.00" fill="#000000">samples = 2</text>
<text text-anchor="middle" x="1543.1784" y="-25" font-family="Helvetica,sans-Serif" font-size="14.00" fill="#000000">value = [0, 0, 0, 0, 0, 0, 2]</text>
<text text-anchor="middle" x="1543.1784" y="-8.2" font-family="Helvetica,sans-Serif" font-size="14.00" fill="#000000">class = Reptile</text>
</g>
<!-- 30&#45;&gt;31 -->
<g id="edge31" class="edge">
<title>30-&gt;31</title>
<path fill="none" stroke="#000000" d="M1602.0623,-110.9595C1594.7168,-101.8082 1587.0123,-92.2097 1579.6871,-83.0838"/>
<polygon fill="#000000" stroke="#000000" points="1582.3553,-80.8164 1573.3661,-75.2088 1576.8963,-85.1982 1582.3553,-80.8164"/>
</g>
<!-- 32 -->
<g id="node33" class="node">
<title>32</title>
<path fill="#f2c09c" stroke="#000000" d="M1810.5356,-75.3003C1810.5356,-75.3003 1659.8212,-75.3003 1659.8212,-75.3003 1653.8212,-75.3003 1647.8212,-69.3003 1647.8212,-63.3003 1647.8212,-63.3003 1647.8212,-11.8997 1647.8212,-11.8997 1647.8212,-5.8997 1653.8212,.1003 1659.8212,.1003 1659.8212,.1003 1810.5356,.1003 1810.5356,.1003 1816.5356,.1003 1822.5356,-5.8997 1822.5356,-11.8997 1822.5356,-11.8997 1822.5356,-63.3003 1822.5356,-63.3003 1822.5356,-69.3003 1816.5356,-75.3003 1810.5356,-75.3003"/>
<text text-anchor="middle" x="1735.1784" y="-58.6" font-family="Helvetica,sans-Serif" font-size="14.00" fill="#000000">gini = 0.444</text>
<text text-anchor="middle" x="1735.1784" y="-41.8" font-family="Helvetica,sans-Serif" font-size="14.00" fill="#000000">samples = 2</text>
<text text-anchor="middle" x="1735.1784" y="-25" font-family="Helvetica,sans-Serif" font-size="14.00" fill="#000000">value = [2, 0, 0, 0, 0, 0, 1]</text>
<text text-anchor="middle" x="1735.1784" y="-8.2" font-family="Helvetica,sans-Serif" font-size="14.00" fill="#000000">class = Amphibian</text>
</g>
<!-- 30&#45;&gt;32 -->
<g id="edge32" class="edge">
<title>30-&gt;32</title>
<path fill="none" stroke="#000000" d="M1676.2945,-110.9595C1683.64,-101.8082 1691.3445,-92.2097 1698.6697,-83.0838"/>
<polygon fill="#000000" stroke="#000000" points="1701.4605,-85.1982 1704.9907,-75.2088 1696.0015,-80.8164 1701.4605,-85.1982"/>
</g>
<!-- 35 -->
<g id="node36" class="node">
<title>35</title>
<path fill="#e53986" stroke="#000000" d="M1910.5356,-450.9003C1910.5356,-450.9003 1759.8212,-450.9003 1759.8212,-450.9003 1753.8212,-450.9003 1747.8212,-444.9003 1747.8212,-438.9003 1747.8212,-438.9003 1747.8212,-387.4997 1747.8212,-387.4997 1747.8212,-381.4997 1753.8212,-375.4997 1759.8212,-375.4997 1759.8212,-375.4997 1910.5356,-375.4997 1910.5356,-375.4997 1916.5356,-375.4997 1922.5356,-381.4997 1922.5356,-387.4997 1922.5356,-387.4997 1922.5356,-438.9003 1922.5356,-438.9003 1922.5356,-444.9003 1916.5356,-450.9003 1910.5356,-450.9003"/>
<text text-anchor="middle" x="1835.1784" y="-434.2" font-family="Helvetica,sans-Serif" font-size="14.00" fill="#000000">gini = 0.0</text>
<text text-anchor="middle" x="1835.1784" y="-417.4" font-family="Helvetica,sans-Serif" font-size="14.00" fill="#000000">samples = 3</text>
<text text-anchor="middle" x="1835.1784" y="-400.6" font-family="Helvetica,sans-Serif" font-size="14.00" fill="#000000">value = [0, 0, 0, 0, 0, 0, 6]</text>
<text text-anchor="middle" x="1835.1784" y="-383.8" font-family="Helvetica,sans-Serif" font-size="14.00" fill="#000000">class = Reptile</text>
</g>
<!-- 34&#45;&gt;35 -->
<g id="edge35" class="edge">
<title>34-&gt;35</title>
<path fill="none" stroke="#000000" d="M1835.1784,-494.9891C1835.1784,-484.0272 1835.1784,-472.309 1835.1784,-461.2667"/>
<polygon fill="#000000" stroke="#000000" points="1838.6785,-460.9335 1835.1784,-450.9335 1831.6785,-460.9335 1838.6785,-460.9335"/>
</g>
<!-- 36 -->
<g id="node37" class="node">
<title>36</title>
<path fill="#39e5e2" stroke="#000000" d="M2102.5356,-450.9003C2102.5356,-450.9003 1951.8212,-450.9003 1951.8212,-450.9003 1945.8212,-450.9003 1939.8212,-444.9003 1939.8212,-438.9003 1939.8212,-438.9003 1939.8212,-387.4997 1939.8212,-387.4997 1939.8212,-381.4997 1945.8212,-375.4997 1951.8212,-375.4997 1951.8212,-375.4997 2102.5356,-375.4997 2102.5356,-375.4997 2108.5356,-375.4997 2114.5356,-381.4997 2114.5356,-387.4997 2114.5356,-387.4997 2114.5356,-438.9003 2114.5356,-438.9003 2114.5356,-444.9003 2108.5356,-450.9003 2102.5356,-450.9003"/>
<text text-anchor="middle" x="2027.1784" y="-434.2" font-family="Helvetica,sans-Serif" font-size="14.00" fill="#000000">gini = 0.0</text>
<text text-anchor="middle" x="2027.1784" y="-417.4" font-family="Helvetica,sans-Serif" font-size="14.00" fill="#000000">samples = 2</text>
<text text-anchor="middle" x="2027.1784" y="-400.6" font-family="Helvetica,sans-Serif" font-size="14.00" fill="#000000">value = [0, 0, 0, 2, 0, 0, 0]</text>
<text text-anchor="middle" x="2027.1784" y="-383.8" font-family="Helvetica,sans-Serif" font-size="14.00" fill="#000000">class = Fish</text>
</g>
<!-- 34&#45;&gt;36 -->
<g id="edge36" class="edge">
<title>34-&gt;36</title>
<path fill="none" stroke="#000000" d="M1904.2235,-495.1699C1923.1493,-482.5527 1943.596,-468.9216 1962.2804,-456.4653"/>
<polygon fill="#000000" stroke="#000000" points="1964.3503,-459.2919 1970.7294,-450.8327 1960.4674,-453.4675 1964.3503,-459.2919"/>
</g>
</g>
</svg>